# xmcd CD database file generated by Grip 3.2.0
# 
# Track frame offsets:
#       183
#       14140
#       27280
#       40538
#       53145
#       67133
#       79438
#       93173
#       106028
#       119775
# 
# Disc length: 1773 seconds
# 
# Revision: 1
# Processed by: cddbd v1.5.1PL0 Copyright (c) Steve Scherf et al.
# Submitted via: Grip 3.2.0
# 
DISCID=8406eb0a
DTITLE=Little Walter - Blues With A Feeling
DYEAR=1991
DGENRE=Blues
TTITLE0=Blues With A Feeling
TTITLE1=Mean Old World
TTITLE2=Key To The Highway
TTITLE3=Off The Wall
TTITLE4=Teenage Beat
TTITLE5=Juke
TTITLE6=You Better Watch Yourself
TTITLE7=Everything Gonna Be Alright
TTITLE8=Confessing The Blues
TTITLE9=Can't Hold Out Much Longer
EXTD=
EXTT0=
EXTT1=
EXTT2=
EXTT3=
EXTT4=
EXTT5=
EXTT6=
EXTT7=
EXTT8=
EXTT9=
PLAYORDER=
